<?xml version="1.0" encoding="UTF-8" standalone="no"?>
<svg
   xmlns:dc="http://purl.org/dc/elements/1.1/"
   xmlns:cc="http://creativecommons.org/ns#"
   xmlns:rdf="http://www.w3.org/1999/02/22-rdf-syntax-ns#"
   xmlns:svg="http://www.w3.org/2000/svg"
   xmlns="http://www.w3.org/2000/svg"
   width="200mm"
   height="300mm"
   viewBox="0 0 708.66142 1062.9921"
   id="svg2"
   version="1.1">
  <defs
     id="defs4">
    <filter
       height="3.1981387"
       y="-1.0990694"
       width="1.7306971"
       x="-0.36534854"
       id="filter4870"
       style="color-interpolation-filters:sRGB">
      <feGaussianBlur
         id="feGaussianBlur4872"
         stdDeviation="94.588047" />
    </filter>
  </defs>
  <metadata
     id="metadata7">
    <rdf:RDF>
      <cc:Work
         rdf:about="">
        <dc:format>image/svg+xml</dc:format>
        <dc:type
           rdf:resource="http://purl.org/dc/dcmitype/StillImage" />
        <dc:title></dc:title>
      </cc:Work>
    </rdf:RDF>
  </metadata>
  <g
     id="layer1"
     transform="translate(0,10.629921)">
    <path
       style="fill:none;stroke:#000000;stroke-width:35.13834381;stroke-linejoin:round;stroke-miterlimit:4;stroke-dasharray:none;stroke-opacity:1"
       d="m 383.17528,1033.716 c 29.96722,-2.5497 53.83614,-7.4278 80.62743,-16.4841 44.3019,-14.9725 87.34119,-42.0715 123.54145,-77.78377 48.12823,-47.47937 79.25006,-100.61185 94.08534,-160.62637 10.86438,-43.95041 12.62063,-96.43132 4.79368,-143.24626 C 676.96174,580.18107 653.21177,527.8272 617.33152,483.71182 590.7269,451.00104 526.72819,358.94753 489.51504,299.86514 440.31538,221.75179 407.30079,157.86884 372.77007,83.526533 361.21626,58.651723 342.63529,6.9351935 342.63529,6.9351935 321.74276,64.865315 296.43366,126.3718 271.73943,176.45293 c -26.59961,53.57772 -60.79712,115.38113 -93.08202,168.22253 -30.22239,49.46577 -36.53716,59.5823 -54.33629,87.04965 -27.350634,42.20715 -39.268104,60.26668 -43.843994,66.44062 -48.111004,64.91225 -68.495284,140.7287 -61.632798,229.23426 7.110861,91.70902 51.796371,172.9987 129.786542,236.10125 9.90427,8.01361 31.93442,22.93852 43.77059,29.65353 35.52548,20.15413 68.86113,31.53313 111.25497,37.97673 23.76725,3.6123 55.36099,4.639 79.51885,2.5845 z"
       id="path4160" />
    <path
       id="path4758"
       transform="translate(0,-10.629921)"
       d="M 43.515625 838.84375 C 65.291928 889.61508 100.6571 935.31485 148.63086 974.13086 C 158.53513 982.14447 180.56617 997.07011 192.40234 1003.7852 C 227.92782 1023.9393 261.26241 1035.3181 303.65625 1041.7617 C 327.4235 1045.374 359.01792 1046.4002 383.17578 1044.3457 C 413.143 1041.796 437.01144 1036.9176 463.80273 1027.8613 C 508.10463 1012.8888 551.14349 985.79039 587.34375 950.07812 C 621.83135 916.05548 647.58362 879.12804 664.87109 838.84766 L 574.89258 838.84766 C 566.77648 849.10122 557.8411 859.06455 548.03516 868.73828 C 517.93828 898.42945 482.15485 920.96007 445.32227 933.4082 C 423.048 940.93761 403.20379 944.99347 378.28906 947.11328 C 358.20422 948.8214 331.93586 947.9681 312.17578 944.96484 C 276.92956 939.60763 249.21555 930.14675 219.67969 913.39062 C 209.8391 907.80775 191.52347 895.39884 183.28906 888.73633 C 164.27733 873.35376 147.6522 856.66771 133.49219 838.84766 L 43.980469 838.84766 C 43.825248 838.84766 43.670793 838.84397 43.515625 838.84375 z "
       style="fill:#000000;stroke:none;stroke-width:35.13834381;stroke-linejoin:round;stroke-miterlimit:4;stroke-dasharray:none;stroke-opacity:1;fill-opacity:1;filter:url(#filter4870)" />
  </g>
</svg>
